<svg xmlns="http://www.w3.org/2000/svg" viewBox="-554.286 -443 1112.973 1112.973"><circle cx="1" cy="1" r="4" fill="#000000" transform="scale(1 -1)"/><circle cx="-295.28570556640625" cy="393" r="4" fill="#000000" transform="scale(1 -1)"/><circle cx="223.7142791748047" cy="355" r="4" fill="#000000" transform="scale(1 -1)"/><circle cx="397.71429443359375" cy="280" r="4" fill="#000000" transform="scale(1 -1)"/><circle cx="226.7142791748047" cy="73" r="4" fill="#000000" transform="scale(1 -1)"/><circle cx="-253.2857208251953" cy="-19" r="4" fill="#000000" transform="scale(1 -1)"/><circle cx="-314.28570556640625" cy="-86" r="4" fill="#000000" transform="scale(1 -1)"/><circle cx="199.7142791748047" cy="-259" r="4" fill="#000000" transform="scale(1 -1)"/><circle cx="-28.285715103149414" cy="41" r="4" fill="#000000" transform="scale(1 -1)"/><circle cx="-204.2857208251953" cy="203" r="4" fill="#000000" transform="scale(1 -1)"/><circle cx="27.714284896850586" cy="186" r="4" fill="#000000" transform="scale(1 -1)"/><circle cx="-504.28570556640625" cy="171" r="4" fill="#000000" transform="scale(1 -1)"/></svg>
